<?xml version="1.0" encoding="utf-8"?>
<!-- Generator: Adobe Illustrator 25.0.1, SVG Export Plug-In . SVG Version: 6.00 Build 0)  -->
<svg version="1.1" id="Camada_1" xmlns="http://www.w3.org/2000/svg" xmlns:xlink="http://www.w3.org/1999/xlink" x="0px" y="0px"
	 viewBox="0 0 754.1 617.3" style="enable-background:new 0 0 754.1 617.3;" xml:space="preserve">
<style type="text/css">
	.st0{fill:#D9FBFF;}
	.st1{font-family:'Roboto-Bold';}
	.st2{font-size:39.399px;}
	.st3{font-size:34.9336px;}
	.st4{font-size:35.5914px;}
	.st5{font-size:36.3977px;}
	.st6{font-size:43.5691px;}
	.st7{font-size:28.5345px;}
	.st8{font-size:34.1922px;}
	.st9{font-size:34.6334px;}
	.st10{font-size:34.8492px;}
	.st11{font-size:38.7261px;}
	.st12{font-size:41.9043px;}
	.st13{font-size:41.0031px;}
	.st14{font-size:31.7252px;}
	.st15{font-size:36.1938px;}
	.st16{font-size:29.4197px;}
	.st17{font-size:40.5588px;}
	.st18{font-size:29.7172px;}
	.st19{font-size:34.3048px;}
	.st20{font-size:45.5141px;}
	.st21{font-size:38.964px;}
	.st22{font-size:37.7332px;}
	.st23{font-size:33.6634px;}
	.st24{font-size:39.2752px;}
	.st25{font-size:39.0301px;}
	.st26{font-size:28.304px;}
	.st27{font-size:34.0307px;}
	.st28{font-size:32.4904px;}
	.st29{font-size:29.7359px;}
</style>
<g id="Palavras_1_">
	<text transform="matrix(1 0 0 1 91.371 387.8765)" class="st0 st1 st2">Energia dos Oceanos</text>
	<text transform="matrix(1 0 0 1 94.7944 463.0854)" class="st0 st1 st3">Energias Renováveis</text>
	<text transform="matrix(1 0 0 1 565.7836 270.4702)" class="st0 st1 st4">Biogás</text>
	<text transform="matrix(1 0 0 1 531.4907 233.2407)" class="st0 st1 st5">Hidroelétrica</text>
	<text transform="matrix(1 0 0 1 514.0795 392.3706)" class="st0 st1 st6">Geração</text>
	<text transform="matrix(1 0 0 1 361.1694 501.397)" class="st0 st1 st7">Eficiêcia Energética</text>
	<text transform="matrix(1 0 0 1 466.1362 463.9546)" class="st0 st1 st8">Distribuição</text>
	<text transform="matrix(1 0 0 1 212.3686 426.647)" class="st0 st1 st9">Sistemas Energéticos</text>
	<text transform="matrix(1 0 0 1 11.3364 339.4263)" class="st0 st1 st10">Carvão Mineral</text>
	<text transform="matrix(1.1025 0 0 1 360.3569 592.3774)" class="st0 st1 st11">Solar</text>
	<text transform="matrix(1 0 0 1 309.6508 350.3687)" class="st0 st1 st12">Biocombustíveis</text>
	<text transform="matrix(1 0 0 1 487.4457 309.7476)" class="st0 st1 st13">Eólica</text>
	<text transform="matrix(1 0 0 1 330.059 164.7998)" class="st0 st1 st14">Fissão e Fusão Nuclear</text>
	<text transform="matrix(1 0 0 1 134.7495 126.2192)" class="st0 st1 st15">Investimentos</text>
	<text transform="matrix(1 0 0 1 214.7744 89.6265)" class="st0 st1 st16">Baixo Carbono</text>
	<text transform="matrix(1 0 0 1 70.1591 174.6558)" class="st0 st1 st17">Produção</text>
	<text transform="matrix(1 0 0 1 410.0405 130.5894)" class="st0 st1 st18">Gás Natural</text>
	<text transform="matrix(1 0 0 1 107.2167 270.8979)" class="st0 st1 st19">Transmissão</text>
	<text transform="matrix(1 0 0 1 145.1513 512.604)" class="st0 st1 st20">Petróleo</text>
	<text transform="matrix(1 0 0 1 272.6762 554.7017)" class="st0 st1 st21">Infra</text>
	<text transform="matrix(1 0 0 1 397.3178 545.3862)" class="st0 st1 st22">Biodiesel</text>
	<text transform="matrix(1 0 0 1 192.1215 306.813)" class="st0 st1 st23">Energias Fósseis</text>
	<text transform="matrix(1 0 0 1 52.83 229.2993)" class="st0 st1 st24">Geotérmica</text>
	<text transform="matrix(1 0 0 1 301.1303 218.3804)" class="st0 st1 st25">Bioetanol</text>
	<text transform="matrix(1.0614 0 0 1 502.6577 196.625)" class="st0 st1 st26">Financiamentos</text>
	<text transform="matrix(1 0 0 1 341.3549 255.1851)" class="st0 st1 st27">Hidrogênio</text>
	<text transform="matrix(1 0 0 1 443.0952 96.0117)" class="st0 st1 st28">Armazenamento</text>
	<text transform="matrix(1 0 0 1 285.5268 55.4175)" class="st0 st1 st29">Hidroelétrica</text>
</g>
</svg>
