<?xml version="1.0" encoding="utf-8"?>
<!-- Generator: Adobe Illustrator 25.0.1, SVG Export Plug-In . SVG Version: 6.00 Build 0)  -->
<svg version="1.1" id="Camada_1" xmlns="http://www.w3.org/2000/svg" xmlns:xlink="http://www.w3.org/1999/xlink" x="0px" y="0px"
	 viewBox="0 0 913.12 781.28" style="enable-background:new 0 0 913.12 781.28;" xml:space="preserve">
<style type="text/css">
	.st0{fill:#FFFFFF;}
	.st1{font-family:'Roboto-Bold';}
	.st2{font-size:40.067px;}
	.st3{font-size:35.5537px;}
	.st4{font-size:43.8786px;}
	.st5{font-size:39.8745px;}
	.st6{font-size:40.9834px;}
	.st7{font-size:39.6217px;}
	.st8{font-size:40.8141px;}
	.st9{font-size:36.9958px;}
	.st10{font-size:43.4972px;}
	.st11{font-size:35.9179px;}
	.st12{font-size:31.9542px;}
	.st13{font-size:35.8079px;}
	.st14{font-size:42.4481px;}
	.st15{font-size:38.1454px;}
	.st16{font-size:40.1828px;}
	.st17{font-size:44.953px;}
	.st18{font-size:38.89px;}
	.st19{font-size:35.9866px;}
	.st20{font-size:44.7417px;}
	.st21{font-size:41.3201px;}
	.st22{font-size:42.4139px;}
	.st23{font-size:39.2092px;}
</style>
<g id="Palavras">
	<text transform="matrix(1 0 0 1 264.2707 502.019)" class="st0 st1 st2">Energia dos Oceanos</text>
	<text transform="matrix(1 0 0 1 476.3727 693.9337)" class="st0 st1 st3">Energias Renováveis</text>
	<text transform="matrix(1 0 0 1 642.6206 615.153)" class="st0 st1 st4">Biogás</text>
	<text transform="matrix(1 0 0 1 395.287 605.585)" class="st0 st1 st5">Hidroelétrica</text>
	<text transform="matrix(1 0 0 1 102.3626 595.4168)" class="st0 st1 st5">Geração</text>
	<text transform="matrix(1 0 0 1 536.9648 558.8975)" class="st0 st1 st3">Eficiêcia Energética</text>
	<text transform="matrix(1 0 0 1 228.5658 549.7902)" class="st0 st1 st6">Distribuição</text>
	<text transform="matrix(1 0 0 1 415.0644 460.4796)" class="st0 st1 st7">Sistemas Energéticos</text>
	<text transform="matrix(1 0 0 1 658.9187 519.5757)" class="st0 st1 st3">Carvão Mineral</text>
	<text transform="matrix(1.1025 0 0 1 86.4937 506.75)" class="st0 st1 st8">Solar</text>
	<text transform="matrix(1 0 0 1 561.9063 297.6649)" class="st0 st1 st9">Biocombustíveis</text>
	<text transform="matrix(1 0 0 1 674.7144 353.5815)" class="st0 st1 st10">Eólica</text>
	<text transform="matrix(1 0 0 1 375.0003 260.5793)" class="st0 st1 st11">Fissão e Fusão Nuclear</text>
	<text transform="matrix(1 0 0 1 7.933 251.1453)" class="st0 st1 st12">Investimentos</text>
	<text transform="matrix(1 0 0 1 316.2975 176.8604)" class="st0 st1 st3">Baixo Carbono</text>
	<text transform="matrix(1 0 0 1 72.2731 297.6647)" class="st0 st1 st13">Produção</text>
	<text transform="matrix(1 0 0 1 244.3715 226.59)" class="st0 st1 st14">Gás Natural</text>
	<text transform="matrix(1 0 0 1 66.9119 460.4796)" class="st0 st1 st15">Transmissão</text>
	<text transform="matrix(1 0 0 1 132.0199 639.3878)" class="st0 st1 st16">Petróleo</text>
	<text transform="matrix(1 0 0 1 326.3969 656.5932)" class="st0 st1 st17">Infra</text>
	<text transform="matrix(1 0 0 1 509.9545 659.236)" class="st0 st1 st18">Biodiesel</text>
	<text transform="matrix(1 0 0 1 172.2446 399.0244)" class="st0 st1 st19">Energias Fósseis</text>
	<text transform="matrix(1 0 0 1 286.4985 336.6165)" class="st0 st1 st20">Geotérmica</text>
	<text transform="matrix(1 0 0 1 437.7394 373.8241)" class="st0 st1 st21">Bioetanol</text>
	<text transform="matrix(0.8908 0 0 1 602.9131 415.3086)" class="st0 st1 st22">Financiamentos</text>
	<text transform="matrix(1 0 0 1 616.5825 208.6847)" class="st0 st1 st23">Hidrogênio</text>
	<text transform="matrix(1 0 0 1 440.0477 141.9298)" class="st0 st1 st3">Armazenamento</text>
	<text transform="matrix(1 0 0 1 185.8808 126.3223)" class="st0 st1 st3">Hidroelétrica</text>
</g>
</svg>
