<svg id="Layer_1" data-name="Layer 1" xmlns="http://www.w3.org/2000/svg" viewBox="0 0 482.01 385.81"><defs><style>.cls-1{fill:#04f;}</style></defs><title>iea_icon_wordmark_white</title><path class="cls-1" d="M50.81,3H0V198.56H50.81Z" transform="translate(0 0)"/><path class="cls-1" d="M431.52,3.09V22.2c-13.77-14.5-35.09-22-55.74-22-54.83,0-99.3,45-99.3,100.58s44.44,100.58,99.3,100.58c20.65,0,41.11-7,55.74-22.18v19.26H482V3.09ZM378.3,156.63c-32.19,0-56.14-24.26-56.14-56s23.84-56.2,56-56.2,56,24.55,56,56.31S410.49,156.63,378.3,156.63Z" transform="translate(0 0)"/><path class="cls-1" d="M212.05,133.43c-9.93,15.22-26.54,25.18-45.39,25.18-25,0-46.16-17.63-52.88-41.78H262.4a102.07,102.07,0,0,0,1.32-16.31C263.72,45,222.32,0,166.66,0A100.82,100.82,0,0,0,85.12,41.43l36.15,26.19c9.93-15.23,26.54-25.21,45.39-25.21,21.46,0,40.05,13,49.14,31.84H69.37a100.72,100.72,0,0,0-3.47,26.27C65.9,156,111,201,166.69,201a100.76,100.76,0,0,0,81.53-41.43Z" transform="translate(0 0)"/><path class="cls-1" d="M8.38,247.34v49H0v-49Z" transform="translate(0 0)"/><path class="cls-1" d="M24.39,260.53v4.75a10.08,10.08,0,0,1,4.1-4,13.81,13.81,0,0,1,6.94-1.64c4.25,0,7.52,1.29,9.84,3.87s3.5,6,3.5,10.27V296.3H40.54V274.87a9.17,9.17,0,0,0-1.75-5.95,6.48,6.48,0,0,0-5.37-2.18,8.12,8.12,0,0,0-6.19,2.35,9,9,0,0,0-2.24,6.5v20.74H16.75v-35.8Z" transform="translate(0 0)"/><path class="cls-1" d="M67.42,267.09v29.24H59.19V267.09H53.74v-6.56h5.45v-9.9h8.23v9.9h6v6.56Z" transform="translate(0 0)"/><path class="cls-1" d="M238.4,267.09v29.24h-8.24V267.09h-5.45v-6.56h5.45v-9.9h8.24v9.9h6v6.56Z" transform="translate(0 0)"/><path class="cls-1" d="M137.71,260.25v7.64a13.68,13.68,0,0,0-1.86-.15q-9.25,0-9.27,9.93V296.3h-8.24V260.51H126v5q3-5.31,10.58-5.32Z" transform="translate(0 0)"/><path class="cls-1" d="M150.65,260.53v4.75a10.14,10.14,0,0,1,4.1-4,13.81,13.81,0,0,1,6.94-1.64c4.25,0,7.52,1.29,9.85,3.87s3.49,6,3.49,10.27V296.3H166.8V274.87a9.11,9.11,0,0,0-1.75-5.95,6.45,6.45,0,0,0-5.36-2.18,8.14,8.14,0,0,0-6.2,2.35,9,9,0,0,0-2.24,6.5v20.74H143v-35.8Z" transform="translate(0 0)"/><path class="cls-1" d="M210.49,260.59h7.61V296.3h-7.61v-5.09c-2.43,4-6.48,5.92-12.1,5.92-5.11,0-9.15-1.77-12.14-5.35a22.21,22.21,0,0,1,0-26.67,15.06,15.06,0,0,1,12.14-5.35c5.62,0,9.67,2,12.1,5.92Zm-17.7,9.7a13.56,13.56,0,0,0,0,16.37,9.94,9.94,0,0,0,14.69,0,13.73,13.73,0,0,0,0-16.43,9.17,9.17,0,0,0-7.37-3.23A9,9,0,0,0,192.79,270.29Z" transform="translate(0 0)"/><path class="cls-1" d="M249.2,296.3V260.5h8.23v35.8Zm9.24-45.7a5.11,5.11,0,1,0-5.11,5.1A5.12,5.12,0,0,0,258.44,250.6Z" transform="translate(0 0)"/><path class="cls-1" d="M283.05,297.13c-5.53,0-10-1.8-13.45-5.44a19.59,19.59,0,0,1,0-26.52,19.28,19.28,0,0,1,27,0,19.62,19.62,0,0,1,0,26.52C293.12,295.33,288.62,297.13,283.05,297.13Zm-10.38-18.68a11.72,11.72,0,0,0,2.92,8.27,10.36,10.36,0,0,0,14.92,0,11.73,11.73,0,0,0,2.93-8.27,11.89,11.89,0,0,0-2.93-8.36,10.34,10.34,0,0,0-14.92,0A11.93,11.93,0,0,0,272.67,278.45Z" transform="translate(0 0)"/><path class="cls-1" d="M315.73,260.53v4.75a10.14,10.14,0,0,1,4.1-4,13.85,13.85,0,0,1,6.95-1.64c4.24,0,7.51,1.29,9.84,3.87s3.5,6,3.5,10.27V296.3h-8.24V274.87a9.11,9.11,0,0,0-1.75-5.95,6.44,6.44,0,0,0-5.36-2.18,8.14,8.14,0,0,0-6.2,2.35,9,9,0,0,0-2.24,6.5v20.74H308.1v-35.8Z" transform="translate(0 0)"/><path class="cls-1" d="M375.58,260.59h7.6V296.3h-7.6v-5.09c-2.44,4-6.49,5.92-12.11,5.92-5.11,0-9.15-1.77-12.14-5.35s-4.44-8-4.44-13.33a20.2,20.2,0,0,1,4.44-13.34,15.06,15.06,0,0,1,12.14-5.35c5.62,0,9.67,2,12.11,5.92Zm-17.7,9.7a13.52,13.52,0,0,0,0,16.37,9.09,9.09,0,0,0,7.31,3.26,9.2,9.2,0,0,0,7.37-3.23,13.73,13.73,0,0,0,0-16.43,9.15,9.15,0,0,0-7.37-3.23A8.91,8.91,0,0,0,357.88,270.29Z" transform="translate(0 0)"/><path class="cls-1" d="M400.16,296.3h-8.23V244.59h8.23Z" transform="translate(0 0)"/><path class="cls-1" d="M33.34,361.8v7.72H0V320.57H33.34v7.72h-25v12.56H32.16v7.73H8.38v13.25h25Z" transform="translate(0 0)"/><path class="cls-1" d="M49,333.73v4.75a10.25,10.25,0,0,1,4.11-4A13.78,13.78,0,0,1,60,332.87c4.25,0,7.52,1.29,9.84,3.86s3.5,6,3.5,10.28V369.5H65.13V348.06a9.19,9.19,0,0,0-1.75-5.95A6.47,6.47,0,0,0,58,339.94a8.15,8.15,0,0,0-6.2,2.34,9,9,0,0,0-2.23,6.5v20.75H41.34v-35.8Z" transform="translate(0 0)"/><path class="cls-1" d="M140.69,333.44v7.64a15.41,15.41,0,0,0-1.86-.14q-9.26,0-9.27,9.93V369.5h-8.23V333.7h7.6v5q3.06-5.32,10.59-5.32Z" transform="translate(0 0)"/><path class="cls-1" d="M171.85,338.82v-5.09h7.61v35.45a16.46,16.46,0,0,1-4.54,12c-3,3.09-7.23,4.67-12.62,4.67-4.94,0-8.78-1.26-11.59-3.81a14.33,14.33,0,0,1-4.88-8.7h8.23c1,3.64,3.82,5.44,8.38,5.44a8.72,8.72,0,0,0,6.46-2.32,8.32,8.32,0,0,0,2.32-6.18v-6.78c-2.41,3.69-6.17,5.52-11.33,5.52a15.12,15.12,0,0,1-12-5.21,20.44,20.44,0,0,1,0-25.69,15.15,15.15,0,0,1,12-5.21C165.37,332.9,169.36,334.87,171.85,338.82ZM171.59,351a11.06,11.06,0,0,0-2.75-7.78,10.14,10.14,0,0,0-14.46,0,12.35,12.35,0,0,0,0,15.54,9.19,9.19,0,0,0,7.2,3.06,9.37,9.37,0,0,0,7.26-3.06A11.34,11.34,0,0,0,171.59,351Z" transform="translate(0 0)"/><path class="cls-1" d="M192.28,385l5.94-16L183.9,333.73h8.78L202.2,359l10.13-25.24h8.58L200.45,385Z" transform="translate(0 0)"/><path class="cls-1" d="M246.56,369.52h-8.84l19-48.95h8.93l19.07,48.95h-9.12l-3.53-9.44H250.14Zm14.57-38.62H261l-8.09,21.57h16.26Z" transform="translate(0 0)"/><path class="cls-1" d="M315.13,338.82v-5.09h7.6v35.45a16.45,16.45,0,0,1-4.53,12c-3,3.09-7.23,4.67-12.63,4.67-4.93,0-8.78-1.26-11.59-3.81a14.27,14.27,0,0,1-4.87-8.7h8.23c1,3.64,3.82,5.44,8.38,5.44a8.71,8.71,0,0,0,6.45-2.32,8.32,8.32,0,0,0,2.33-6.18v-6.78c-2.41,3.69-6.17,5.52-11.34,5.52a15.12,15.12,0,0,1-12-5.21,20.48,20.48,0,0,1,0-25.69,15.15,15.15,0,0,1,12-5.21C308.67,332.9,312.66,334.87,315.13,338.82ZM314.87,351a11.11,11.11,0,0,0-2.75-7.78,10.14,10.14,0,0,0-14.46,0,12.32,12.32,0,0,0,0,15.54,9.16,9.16,0,0,0,7.2,3.06,9.37,9.37,0,0,0,7.26-3.06A11.39,11.39,0,0,0,314.87,351Z" transform="translate(0 0)"/><path class="cls-1" d="M378.3,333.73v4.75a10.22,10.22,0,0,1,4.1-4,13.82,13.82,0,0,1,7-1.63c4.24,0,7.51,1.29,9.84,3.86s3.5,6,3.5,10.28V369.5h-8.24V348.06a9.13,9.13,0,0,0-1.75-5.95c-1.17-1.46-2.95-2.17-5.36-2.17a8.13,8.13,0,0,0-6.2,2.34,9.05,9.05,0,0,0-2.24,6.5v20.75h-8.23v-35.8Z" transform="translate(0 0)"/><path class="cls-1" d="M408.86,351.67a18.8,18.8,0,0,1,5.05-13.33,16.79,16.79,0,0,1,12.85-5.41q7.39,0,11.79,4.18a16.34,16.34,0,0,1,5.22,9.61h-8.43a8.55,8.55,0,0,0-3.07-4.75,8.8,8.8,0,0,0-5.57-1.8,8.54,8.54,0,0,0-7,3.2,12.74,12.74,0,0,0-2.64,8.3,12.38,12.38,0,0,0,2.64,8.27,8.58,8.58,0,0,0,7,3.18,8.8,8.8,0,0,0,5.57-1.81,8.36,8.36,0,0,0,3.07-4.75h8.43a16.36,16.36,0,0,1-5.22,9.62c-2.93,2.77-6.86,4.18-11.79,4.18A16.78,16.78,0,0,1,413.91,365,18.83,18.83,0,0,1,408.86,351.67Z" transform="translate(0 0)"/><path class="cls-1" d="M453.38,385l5.94-16L445,333.73h8.78L463.31,359l10.13-25.24H482L461.56,385Z" transform="translate(0 0)"/><path class="cls-1" d="M103.05,285.46a12.84,12.84,0,0,1-3.75,3.29,12.14,12.14,0,0,1-5.23,1.34,9.51,9.51,0,0,1-6.91-2.52,10.7,10.7,0,0,1-3.1-6.78h26.71l.06-2.54c0-5.33-1-9.76-4.28-13.28a16.5,16.5,0,0,0-12.76-5.27,16.72,16.72,0,0,0-12.86,5.38,20.51,20.51,0,0,0-.05,26.76c3.3,3.55,7.6,5.32,13,5.32a17.44,17.44,0,0,0,10.67-3.35,16.53,16.53,0,0,0,4.07-4.29Zm-15.72-16.8a9.31,9.31,0,0,1,6.43-2.29,9,9,0,0,1,6.43,2.29,9.93,9.93,0,0,1,3,6.07H84.15A10.19,10.19,0,0,1,87.33,268.66Z" transform="translate(0 0)"/><path class="cls-1" d="M106.64,358.68a12.82,12.82,0,0,1-3.76,3.29,12.07,12.07,0,0,1-5.22,1.35,9.5,9.5,0,0,1-6.91-2.52,10.7,10.7,0,0,1-3.1-6.78h26.71l.06-2.55c0-5.32-1-9.76-4.28-13.28s-7.49-5.26-12.77-5.26a16.66,16.66,0,0,0-12.85,5.38,20.51,20.51,0,0,0-.06,26.75,16.86,16.86,0,0,0,13,5.32A17.43,17.43,0,0,0,108.1,367a16.45,16.45,0,0,0,4.08-4.3ZM91,341.86a9.26,9.26,0,0,1,6.42-2.29,9.13,9.13,0,0,1,6.43,2.29,9.83,9.83,0,0,1,3,6.06H87.76A9.84,9.84,0,0,1,91,341.86Z" transform="translate(0 0)"/><path class="cls-1" d="M356.58,358.68a12.69,12.69,0,0,1-3.75,3.29,12.15,12.15,0,0,1-5.23,1.35,9.5,9.5,0,0,1-6.91-2.52,10.75,10.75,0,0,1-3.1-6.78H364.3l.06-2.55c0-5.32-1-9.76-4.28-13.28s-7.48-5.26-12.76-5.26a16.73,16.73,0,0,0-12.86,5.38,20.5,20.5,0,0,0,0,26.75,16.84,16.84,0,0,0,13,5.32A17.46,17.46,0,0,0,358.05,367a16.57,16.57,0,0,0,4.07-4.3Zm-15.69-16.82a9.27,9.27,0,0,1,6.43-2.29,9.11,9.11,0,0,1,6.42,2.29,9.78,9.78,0,0,1,3,6.06H337.71A9.83,9.83,0,0,1,340.89,341.86Z" transform="translate(0 0)"/></svg>